<svg width="270" height="63" viewBox="0 0 270 63" fill="none" xmlns="http://www.w3.org/2000/svg">
<path d="M97.312 48.288C95.552 48.288 94.096 48.096 92.944 47.712C91.792 47.328 90.928 46.752 90.352 45.984C89.808 45.184 89.536 44.192 89.536 43.008V23.568C89.536 21.456 90.16 20 91.408 19.2C92.656 18.4 94.592 18 97.216 18C99.68 18 101.568 18.4 102.88 19.2C104.192 20 104.848 21.472 104.848 23.616V28.032L99.616 28.272V24.672C99.616 23.68 99.44 23.024 99.088 22.704C98.736 22.352 98.128 22.176 97.264 22.176C96.368 22.176 95.712 22.352 95.296 22.704C94.912 23.056 94.72 23.696 94.72 24.624V42.144C94.72 42.656 94.816 43.04 95.008 43.296C95.2 43.552 95.488 43.744 95.872 43.872C96.288 43.968 96.768 44.016 97.312 44.016C97.856 44.016 98.304 43.968 98.656 43.872C99.04 43.744 99.328 43.552 99.52 43.296C99.712 43.04 99.808 42.656 99.808 42.144V36.384H96.736L97.072 32.016H104.848V43.008C104.848 44.192 104.544 45.184 103.936 45.984C103.36 46.752 102.512 47.328 101.392 47.712C100.272 48.096 98.912 48.288 97.312 48.288ZM120.362 48L126.554 18.24H132.314L138.458 48H133.034L131.786 41.568L132.65 42.384H126.026L126.746 41.568L125.642 48H120.362ZM126.938 38.832L126.458 38.256H132.362L131.69 38.832L129.626 25.248L129.578 24.336H129.194L129.146 25.248L126.938 38.832ZM155.045 18.24H165.989C167.365 18.24 168.373 18.416 169.013 18.768C169.685 19.088 170.117 19.6 170.309 20.304C170.533 20.976 170.645 21.824 170.645 22.848V29.04C170.645 30.192 170.549 31.28 170.357 32.304C170.165 33.296 169.669 34.112 168.869 34.752C168.069 35.36 166.757 35.664 164.933 35.664H160.277V48H155.045V18.24ZM167.333 48.96L162.005 35.376L165.509 35.232L166.997 35.616L167.237 35.856L172.181 47.088L167.333 48.96ZM163.205 31.584C164.005 31.584 164.581 31.376 164.933 30.96C165.285 30.512 165.461 29.76 165.461 28.704V25.296C165.461 24.016 165.317 23.2 165.029 22.848C164.773 22.496 164.245 22.32 163.445 22.32H160.277V31.584H163.205ZM187.271 48L193.463 18.24H199.223L205.367 48H199.943L198.695 41.568L199.559 42.384H192.935L193.655 41.568L192.551 48H187.271ZM193.847 38.832L193.367 38.256H199.271L198.599 38.832L196.535 25.248L196.487 24.336H196.103L196.055 25.248L193.847 38.832ZM229.162 48.288C227.402 48.288 225.946 48.096 224.794 47.712C223.642 47.328 222.778 46.752 222.202 45.984C221.658 45.184 221.386 44.192 221.386 43.008V23.568C221.386 21.456 222.01 20 223.258 19.2C224.506 18.4 226.442 18 229.066 18C231.53 18 233.418 18.4 234.73 19.2C236.042 20 236.698 21.472 236.698 23.616V28.032L231.466 28.272V24.672C231.466 23.68 231.29 23.024 230.938 22.704C230.586 22.352 229.978 22.176 229.114 22.176C228.218 22.176 227.562 22.352 227.146 22.704C226.762 23.056 226.57 23.696 226.57 24.624V42.144C226.57 42.656 226.666 43.04 226.858 43.296C227.05 43.552 227.338 43.744 227.722 43.872C228.138 43.968 228.618 44.016 229.162 44.016C229.706 44.016 230.154 43.968 230.506 43.872C230.89 43.744 231.178 43.552 231.37 43.296C231.562 43.04 231.658 42.656 231.658 42.144V36.384H228.586L228.922 32.016H236.698V43.008C236.698 44.192 236.394 45.184 235.786 45.984C235.21 46.752 234.362 47.328 233.242 47.712C232.122 48.096 230.762 48.288 229.162 48.288ZM254.26 18.24H268.948V22.32H259.492V29.616H267.94L267.268 33.696H259.492V43.92H268.948V48H254.26V18.24Z" fill="#E8E8E8"/>
<path d="M0 3C0 1.34315 1.34315 0 3 0V0C4.65685 0 6 1.34315 6 3V58C6 59.1046 5.10457 60 4 60V60C1.79086 60 0 58.2091 0 56V3Z" fill="#E8E8E8"/>
<rect x="15" y="15" width="30" height="3" rx="1.5" fill="#E8E8E8"/>
<rect x="15" y="26" width="30" height="3" rx="1.5" fill="#E8E8E8"/>
<rect x="15" y="37" width="30" height="3" rx="1.5" fill="#E8E8E8"/>
<rect x="15" y="48" width="30" height="3" rx="1.5" fill="#E8E8E8"/>
<path d="M54 3C54 1.34315 55.3431 0 57 0V0C58.6569 0 60 1.34315 60 3V56C60 58.2091 58.2091 60 56 60V60C54.8954 60 54 59.1046 54 58V3Z" fill="#E8E8E8"/>
<rect y="6" width="6" height="60" rx="3" transform="rotate(-90 0 6)" fill="#E8E8E8"/>
</svg>
