<svg width="176" height="176" viewBox="0 0 176 176" fill="none" xmlns="http://www.w3.org/2000/svg">
<mask id="mask0_303_2" style="mask-type:luminance" maskUnits="userSpaceOnUse" x="0" y="0" width="176" height="176">
<path d="M0.385498 0.712891H175.563V175.891H0.385498V0.712891Z" fill="white"/>
</mask>
<g mask="url(#mask0_303_2)">
<path d="M0.385498 0.712891H175.563V175.891H0.385498V0.712891Z" fill="#FFD600"/>
</g>
<path d="M114.923 131.837C118.29 137.306 121.95 142.547 129.701 142.547C136.212 142.547 139.628 139.311 139.628 134.834C139.628 129.477 136.095 127.574 128.932 124.455L125.005 122.781C113.672 117.974 106.135 111.95 106.135 99.2248C106.135 87.4974 115.113 78.5732 129.141 78.5732C139.131 78.5732 146.309 82.0328 151.486 91.0935L139.253 98.9134C136.562 94.1056 133.652 92.2128 129.141 92.2128C124.538 92.2128 121.624 95.1176 121.624 98.9134C121.624 103.604 124.543 105.502 131.282 108.407L135.209 110.081C148.567 115.769 156.099 121.579 156.099 134.64C156.099 148.713 144.985 156.425 130.066 156.425C115.473 156.425 107.186 149.102 102.573 140.036L114.923 131.837ZM58.5448 132.236C61.0069 136.645 64.7493 140.036 70.1308 140.036C75.2791 140.036 78.2426 138.002 78.2426 130.095V78.5684H94.461V132.587C94.461 148.97 84.9578 156.425 71.0796 156.425C58.5399 156.425 49.4889 147.929 45.8005 140.036L58.5448 132.236Z" fill="#000001"/>
</svg>
